<svg xmlns="http://www.w3.org/2000/svg" viewBox="0 0 180 64" role="img" aria-labelledby="title description">
  <title id="title">ESO Addon Workshop</title>
  <desc id="description">Three gold workshop tiles showing an addon puzzle, code brackets, and an upload arrow.</desc>
  <defs>
    <linearGradient id="gold" x1="0" y1="0" x2="1" y2="1">
      <stop offset="0" stop-color="#f2cf72"/>
      <stop offset="1" stop-color="#b97920"/>
    </linearGradient>
    <filter id="shadow" x="-20%" y="-20%" width="140%" height="150%">
      <feDropShadow dx="0" dy="4" stdDeviation="4" flood-color="#000" flood-opacity=".35"/>
    </filter>
  </defs>
  <g filter="url(#shadow)" fill="url(#gold)">
    <rect x="2" y="4" width="52" height="52" rx="9"/>
    <rect x="64" y="4" width="52" height="52" rx="9"/>
    <rect x="126" y="4" width="52" height="52" rx="9"/>
  </g>
  <g fill="none" stroke="#0a0f11" stroke-linecap="round" stroke-linejoin="round" stroke-width="4">
    <path d="M14 20h9a6 6 0 1 1 10 0h9v9a6 6 0 1 1 0 10v9H32a6 6 0 1 0-10 0h-8v-9a6 6 0 1 0 0-10z"/>
    <path d="m83 19-9 13 9 13M97 19l9 13-9 13M93 17 87 47"/>
    <path d="M139 43v6h26v-6M152 40V16M143 25l9-9 9 9"/>
  </g>
</svg>
